<svg width="19" height="18" viewBox="0 0 19 18" fill="none" xmlns="http://www.w3.org/2000/svg">
<path fill-rule="evenodd" clip-rule="evenodd" d="M4.75 9C4.75 5.82436 7.32436 3.25 10.5 3.25C13.6756 3.25 16.25 5.82436 16.25 9C16.25 12.1756 13.6756 14.75 10.5 14.75C7.32436 14.75 4.75 12.1756 4.75 9ZM10.5 1.25C6.21979 1.25 2.75 4.71979 2.75 9C2.75 13.2802 6.21979 16.75 10.5 16.75C14.7802 16.75 18.25 13.2802 18.25 9C18.25 4.71979 14.7802 1.25 10.5 1.25ZM11.5 5.25C11.5 4.69772 11.0523 4.25 10.5 4.25C9.94772 4.25 9.5 4.69772 9.5 5.25V9C9.5 9.26522 9.60536 9.51957 9.79289 9.70711L11.6679 11.5821C12.0584 11.9726 12.6916 11.9726 13.0821 11.5821C13.4726 11.1916 13.4726 10.5584 13.0821 10.1679L11.5 8.58579V5.25Z" fill="#C4C4C4"/>
</svg>
